<svg
  width="64"
  height="64"
  viewBox="0 0 64 64"
  fill="none"
  xmlns="http://www.w3.org/2000/svg"
>
  <defs>
    <linearGradient id="titeet-bg" x1="10" y1="8" x2="54" y2="56" gradientUnits="userSpaceOnUse">
      <stop offset="0" stop-color="#0B1224" />
      <stop offset="1" stop-color="#1E334F" />
    </linearGradient>
    <linearGradient id="titeet-accent" x1="12" y1="14" x2="50" y2="42" gradientUnits="userSpaceOnUse">
      <stop offset="0" stop-color="#7AE7FF" />
      <stop offset="1" stop-color="#2FA4FF" />
    </linearGradient>
  </defs>
  <rect x="4" y="4" width="56" height="56" rx="18" fill="url(#titeet-bg)" />
  <path
    d="M16 33.8C16 31.1 18.2 29 20.9 29H43.1C45.8 29 48 31.1 48 33.8V39.1C48 40.9 46.5 42.4 44.7 42.4H19.3C17.5 42.4 16 40.9 16 39.1V33.8Z"
    fill="url(#titeet-accent)"
  />
  <path
    d="M22.9 24.8C25.4 22.4 28.7 21 32.1 21C35.4 21 38.7 22.4 41.2 24.8L44.3 27.8C45 28.5 44.5 29.8 43.5 29.8H20.6C19.6 29.8 19.1 28.5 19.8 27.8L22.9 24.8Z"
    fill="#D9F7FF"
    fill-opacity="0.9"
  />
  <path
    d="M32 36.1C31.1 36.1 30.4 35.4 30.4 34.5V15.6C30.4 14.7 31.1 14 32 14C32.9 14 33.6 14.7 33.6 15.6V34.5C33.6 35.4 32.9 36.1 32 36.1Z"
    fill="#DFF7FF"
  />
  <circle cx="23.8" cy="41.2" r="2.8" fill="#071221" />
  <circle cx="40.2" cy="41.2" r="2.8" fill="#071221" />
</svg>
